<?xml version="1.0" encoding="UTF-8"?>
<svg xmlns="http://www.w3.org/2000/svg" xmlns:se="https://standardebooks.org/vocab/1.0" version="1.1" viewBox="0 0 1400 670" se:generated-from="84ddd2cdc7f299d7265e5b00474993a09f53d3b0">
	<path d="M 331.83844,52.807016 331.83844,130 354.20102,130 C 375.44078,130 393.125,113.90643 393.125,91.356724 393.125,68.900584 375.34722,52.807016 354.20102,52.807016 L 331.83844,52.807016 Z M 349.42909,114.2807 349.42909,68.526315 352.14254,68.526315 C 365.24195,68.526315 374.13084,78.538011 374.13084,91.450292 374.03728,104.36257 365.14839,114.2807 352.14254,114.2807 L 349.42909,114.2807 Z"/>
	<path d="M 402.4554,91.356724 C 402.4554,113.90643 418.54897,131.40351 441.37938,131.40351 463.55482,131.40351 480.20979,113.90643 480.20979,91.356724 480.20979,68.807016 462.80628,51.403507 441.37938,51.403507 420.13962,51.403507 402.4554,68.807016 402.4554,91.356724 Z M 421.44956,91.356724 C 421.44956,79.847952 427.81213,68.33918 441.37938,68.33918 455.0402,68.33918 461.21564,79.847952 461.21564,91.356724 461.21564,102.8655 455.41447,114.37427 441.37938,114.37427 426.97003,114.37427 421.44956,102.8655 421.44956,91.356724 Z"/>
	<path d="M 510.56213,82.093566 510.74926,82.093566 541.43932,130 559.02997,130 559.02997,52.807016 541.43932,52.807016 541.43932,100.71345 541.25219,100.71345 510.56213,52.807016 492.97149,52.807016 492.97149,130 510.56213,130 510.56213,82.093566 Z"/>
	<path d="M 624.66594,146.18713 C 624.66594,146.18713 628.7829,141.88304 636.08114,141.88304 647.96419,141.88304 652.73612,149.18129 664.24489,149.18129 676.5022,149.18129 681.46126,138.70175 681.46126,138.70175 L 675.94079,126.81871 C 675.94079,126.81871 672.29167,131.87135 664.33845,131.87135 659.75366,131.87135 654.13962,130.09357 652.36185,130.09357 L 652.36185,129.7193 C 668.36185,124.8538 679.21565,109.78947 679.21565,91.356724 679.21565,68.807016 662.27998,51.403507 640.85307,51.403507 619.61331,51.403507 602.39693,68.807016 602.39693,91.356724 602.39693,111.19298 614.46711,127.09942 632.80629,130.65497 L 632.80629,131.02924 C 627.19226,131.02924 620.45541,139.82456 620.45541,139.82456 L 624.66594,146.18713 Z M 621.39109,91.356724 C 621.39109,79.847952 627.28582,69.087718 640.85307,69.087718 654.51389,69.087718 660.2215,79.847952 660.2215,91.356724 660.2215,102.8655 654.88816,113.62573 640.85307,113.62573 626.44372,113.62573 621.39109,102.8655 621.39109,91.356724 Z"/>
	<path d="M 751.32091,52.807016 733.73027,52.807016 733.73027,97.438596 C 733.73027,110.35088 729.80044,114.09357 721.19225,114.09357 712.58407,114.09357 708.65424,110.35088 708.65424,97.438596 L 708.65424,52.807016 691.0636,52.807016 691.0636,102.58479 C 691.0636,121.67251 701.54313,131.40351 721.19225,131.40351 740.84138,131.40351 751.32091,121.67251 751.32091,102.58479 L 751.32091,52.807016 Z"/>
	<path d="M 784.21711,52.807016 766.62647,52.807016 766.62647,130 784.21711,130 784.21711,52.807016 Z"/>
	<path d="M 872.73466,130 842.606,88.45614 867.86916,52.807016 845.97442,52.807016 831.7522,73.859648 817.52998,52.807016 796.57091,52.807016 820.8984,88.45614 791.70541,130 813.50658,130 831.7522,103.7076 849.99781,130 872.73466,130 Z"/>
	<path d="M 876.78289,91.356724 C 876.78289,113.90643 892.87646,131.40351 915.70687,131.40351 937.88231,131.40351 954.53728,113.90643 954.53728,91.356724 954.53728,68.807016 937.13377,51.403507 915.70687,51.403507 894.4671,51.403507 876.78289,68.807016 876.78289,91.356724 Z M 895.77704,91.356724 C 895.77704,79.847952 902.13961,68.33918 915.70687,68.33918 929.36769,68.33918 935.54312,79.847952 935.54312,91.356724 935.54312,102.8655 929.74195,114.37427 915.70687,114.37427 901.29751,114.37427 895.77704,102.8655 895.77704,91.356724 Z"/>
	<path d="M 959.50951,68.245613 977.84869,68.245613 977.84869,130 995.43933,130 995.43933,68.245613 1013.7785,68.245613 1013.7785,52.807016 959.50951,52.807016 959.50951,68.245613 Z"/>
	<path d="M 1069.277,52.807016 1025.1133,52.807016 1025.1133,130 1069.277,130 1069.277,114.5614 1042.7039,114.5614 1042.7039,99.029239 1068.1542,99.029239 1068.1542,83.590642 1042.7039,83.590642 1042.7039,68.245613 1069.277,68.245613 1069.277,52.807016 Z"/>
	<path d="M 600.24726,290 613.44024,290 608.24726,232.10526 594.21217,232.10526 581.37007,265.50877 568.52796,232.10526 554.49287,232.10526 549.29989,290 562.49287,290 565.22972,255.68421 565.58059,255.68421 577.44024,289.64912 585.29989,289.64912 597.15954,255.68421 597.51042,255.68421 600.24726,290 Z"/>
	<path d="M 636.91831,232.10526 623.72533,232.10526 623.72533,290 636.91831,290 636.91831,232.10526 Z"/>
	<path d="M 702.7319,257.57895 675.99506,257.57895 675.99506,267.75439 689.32839,267.75439 C 689.32839,274.84211 683.08278,278.91228 676.76699,278.91228 668.62664,278.91228 662.03015,270.91228 662.03015,261.08772 662.03015,251.05263 668.62664,242.98246 676.76699,242.98246 681.8898,242.98246 686.31085,245.01754 689.67927,250.42105 L 698.31085,240.94737 C 693.25822,234.84211 686.1705,231.05263 675.99506,231.05263 659.71436,231.05263 647.78454,244.45614 647.78454,261.08772 647.78454,277.64912 660.41611,291.05263 675.99506,291.05263 687.36348,291.05263 699.57401,284.80702 702.7319,270.14035 L 702.7319,257.57895 Z"/>
	<path d="M 757.98629,232.10526 744.79331,232.10526 744.79331,265.57895 C 744.79331,275.26316 741.84594,278.07018 735.3898,278.07018 728.93366,278.07018 725.98629,275.26316 725.98629,265.57895 L 725.98629,232.10526 712.79331,232.10526 712.79331,269.4386 C 712.79331,283.75439 720.65296,291.05263 735.3898,291.05263 750.12664,291.05263 757.98629,283.75439 757.98629,269.4386 L 757.98629,232.10526 Z"/>
	<path d="M 803.83827,232.10526 770.71546,232.10526 770.71546,290 803.83827,290 803.83827,278.42105 783.90844,278.42105 783.90844,266.77193 802.99616,266.77193 802.99616,255.19298 783.90844,255.19298 783.90844,243.68421 803.83827,243.68421 803.83827,232.10526 Z"/>
	<path d="M 829.61569,232.10526 816.42271,232.10526 816.42271,290 849.54551,290 849.54551,278.42105 829.61569,278.42105 829.61569,232.10526 Z"/>
	<path d="M 172.78235,312.10526 172.78235,370 189.55428,370 C 205.48411,370 218.74726,357.92982 218.74726,341.01754 218.74726,324.17544 205.41393,312.10526 189.55428,312.10526 L 172.78235,312.10526 Z M 185.97533,358.21053 185.97533,323.89474 188.01042,323.89474 C 197.83498,323.89474 204.50165,331.40351 204.50165,341.08772 204.43147,350.77193 197.76481,358.21053 188.01042,358.21053 L 185.97533,358.21053 Z"/>
	<path d="M 262.71437,312.10526 229.59156,312.10526 229.59156,370 262.71437,370 262.71437,358.42105 242.78455,358.42105 242.78455,346.77193 261.87226,346.77193 261.87226,335.19298 242.78455,335.19298 242.78455,323.68421 262.71437,323.68421 262.71437,312.10526 Z"/>
	<path d="M 328.10143,358.07018 C 314.83827,358.07018 309.01371,348.80702 309.01371,341.01754 309.01371,333.29825 314.83827,324.03509 328.10143,324.03509 334.83827,324.03509 339.46985,327.61404 339.46985,327.61404 L 345.08389,316.38597 C 345.08389,316.38597 338.62775,311.05263 326.06634,311.05263 309.64529,311.05263 294.69792,324.52632 294.69792,341.1579 294.69792,357.7193 309.71547,371.05263 326.06634,371.05263 338.62775,371.05263 345.08389,365.7193 345.08389,365.7193 L 339.46985,354.49123 C 339.46985,354.49123 334.83827,358.07018 328.10143,358.07018 Z"/>
	<path d="M 388.32291,312.10526 355.20011,312.10526 355.20011,370 388.32291,370 388.32291,358.42105 368.39309,358.42105 368.39309,346.77193 387.48081,346.77193 387.48081,335.19298 368.39309,335.19298 368.39309,323.68421 388.32291,323.68421 388.32291,312.10526 Z"/>
	<path d="M 400.90735,312.10526 400.90735,370 414.10033,370 414.10033,347.12281 431.78454,370 448.55647,370 428.62665,346.07018 C 435.71437,343.82456 440.4863,338 440.4863,329.29825 440.4863,317.92983 432.34595,312.10526 421.60911,312.10526 L 400.90735,312.10526 Z M 414.10033,337.78947 414.10033,322.63158 415.64419,322.63158 C 420.62665,322.63158 426.59156,322.98246 426.59156,330.21053 426.59156,337.4386 420.62665,337.78947 415.64419,337.78947 L 414.10033,337.78947 Z"/>
	<path d="M 474.31416,370 484.70012,370 508.98082,312.10526 494.10363,312.10526 479.50714,350.14035 464.91065,312.10526 450.03346,312.10526 474.31416,370 Z"/>
	<path d="M 539.13212,312.10526 526.92159,312.10526 503.55317,370 517.72861,370 522.00931,358.42105 544.0444,358.42105 548.3251,370 562.50054,370 539.13212,312.10526 Z M 539.55317,346.84211 526.50054,346.84211 532.95668,330 533.09703,330 539.55317,346.84211 Z"/>
	<path d="M 582.88323,334.07018 583.02358,334.07018 606.04113,370 619.23411,370 619.23411,312.10526 606.04113,312.10526 606.04113,348.03509 605.90077,348.03509 582.88323,312.10526 569.69025,312.10526 569.69025,370 582.88323,370 582.88323,334.07018 Z"/>
	<path d="M 625.59157,323.68421 639.34596,323.68421 639.34596,370 652.53894,370 652.53894,323.68421 666.29333,323.68421 666.29333,312.10526 625.59157,312.10526 625.59157,323.68421 Z"/>
	<path d="M 709.16721,312.10526 676.04441,312.10526 676.04441,370 709.16721,370 709.16721,358.42105 689.23739,358.42105 689.23739,346.77193 708.32511,346.77193 708.32511,335.19298 689.23739,335.19298 689.23739,323.68421 709.16721,323.68421 709.16721,312.10526 Z"/>
	<path d="M 743.08498,311.05263 C 733.75165,311.05263 724.20779,317.92983 724.20779,328.73684 724.20779,334.77193 728.27797,340.17544 735.22533,343.61404 742.10253,347.05263 748.27797,348.94737 748.27797,353.15789 748.27797,358.5614 742.80428,358.84211 739.92709,358.84211 733.47095,358.84211 725.75165,352.31579 725.75165,352.31579 L 719.15516,363.40351 C 719.15516,363.40351 727.36569,371.05263 740.90954,371.05263 752.20779,371.05263 762.73411,366.21053 762.73411,352.38597 762.73411,344.80702 755.64639,339.33333 749.19025,336.59649 742.59376,333.78947 737.12007,331.47368 737.12007,328.24561 737.12007,325.08772 739.50604,323.05263 743.99726,323.05263 749.96218,323.05263 755.71656,327.05263 755.71656,327.05263 L 761.0499,316.52632 C 761.0499,316.52632 753.6113,311.05263 743.08498,311.05263 Z"/>
	<path d="M 818.05209,311.05263 C 808.71875,311.05263 799.17489,317.92983 799.17489,328.73684 799.17489,334.77193 803.24507,340.17544 810.19244,343.61404 817.06963,347.05263 823.24507,348.94737 823.24507,353.15789 823.24507,358.5614 817.77138,358.84211 814.89419,358.84211 808.43805,358.84211 800.71875,352.31579 800.71875,352.31579 L 794.12226,363.40351 C 794.12226,363.40351 802.33279,371.05263 815.87665,371.05263 827.17489,371.05263 837.70121,366.21053 837.70121,352.38597 837.70121,344.80702 830.61349,339.33333 824.15735,336.59649 817.56086,333.78947 812.08717,331.47368 812.08717,328.24561 812.08717,325.08772 814.47314,323.05263 818.96437,323.05263 824.92928,323.05263 830.68366,327.05263 830.68366,327.05263 L 836.017,316.52632 C 836.017,316.52632 828.5784,311.05263 818.05209,311.05263 Z"/>
	<path d="M 878.27137,312.10526 866.06084,312.10526 842.69242,370 856.86786,370 861.14856,358.42105 883.18365,358.42105 887.46435,370 901.63979,370 878.27137,312.10526 Z M 878.69242,346.84211 865.63979,346.84211 872.09593,330 872.23628,330 878.69242,346.84211 Z"/>
	<path d="M 938.23298,312.10526 926.02245,312.10526 902.65403,370 916.82947,370 921.11017,358.42105 943.14526,358.42105 947.42596,370 961.6014,370 938.23298,312.10526 Z M 938.65403,346.84211 925.6014,346.84211 932.05754,330 932.19789,330 938.65403,346.84211 Z"/>
	<path d="M 981.00273,370 991.38869,370 1015.6694,312.10526 1000.7922,312.10526 986.19571,350.14035 971.59922,312.10526 956.72202,312.10526 981.00273,370 Z"/>
	<path d="M 1055.9819,312.10526 1022.8591,312.10526 1022.8591,370 1055.9819,370 1055.9819,358.42105 1036.0521,358.42105 1036.0521,346.77193 1055.1398,346.77193 1055.1398,335.19298 1036.0521,335.19298 1036.0521,323.68421 1055.9819,323.68421 1055.9819,312.10526 Z"/>
	<path d="M 1068.5663,312.10526 1068.5663,370 1085.3383,370 C 1101.2681,370 1114.5313,357.92982 1114.5313,341.01754 1114.5313,324.17544 1101.1979,312.10526 1085.3383,312.10526 L 1068.5663,312.10526 Z M 1081.7593,358.21053 1081.7593,323.89474 1083.7944,323.89474 C 1093.619,323.89474 1100.2856,331.40351 1100.2856,341.08772 1100.2155,350.77193 1093.5488,358.21053 1083.7944,358.21053 L 1081.7593,358.21053 Z"/>
	<path d="M 1125.3756,312.10526 1125.3756,370 1138.5685,370 1138.5685,347.12281 1156.2527,370 1173.0247,370 1153.0948,346.07018 C 1160.1826,343.82456 1164.9545,338 1164.9545,329.29825 1164.9545,317.92983 1156.8141,312.10526 1146.0773,312.10526 L 1125.3756,312.10526 Z M 1138.5685,337.78947 1138.5685,322.63158 1140.1124,322.63158 C 1145.0948,322.63158 1151.0598,322.98246 1151.0598,330.21053 1151.0598,337.4386 1145.0948,337.78947 1140.1124,337.78947 L 1138.5685,337.78947 Z"/>
	<path d="M 1210.0806,312.10526 1197.87,312.10526 1174.5016,370 1188.6771,370 1192.9578,358.42105 1214.9929,358.42105 1219.2736,370 1233.449,370 1210.0806,312.10526 Z M 1210.5016,346.84211 1197.449,346.84211 1203.9051,330 1204.0455,330 1210.5016,346.84211 Z"/>
	<path d="M 594.75525,543.42189 C 594.75525,544.61212 597.26322,543.67694 597.26322,544.56961 597.26322,545.71732 595.47789,552.60361 595.47789,556.51435 595.47789,559.82997 597.05068,560.5101 598.1984,560.5101 600.83389,560.5101 604.44707,557.61955 604.44707,556.51435 604.44707,555.91923 604.107,555.91923 603.97948,555.91923 603.29935,555.91923 602.32167,557.78959 599.98373,557.78959 599.8137,557.78959 598.2409,557.70457 598.2409,555.45165 598.2409,554.77152 599.21859,549.24548 599.60116,546.60999 599.85621,544.86716 599.72868,544.10202 600.96141,544.10202 601.89659,544.10202 603.72443,544.31456 604.40456,544.31456 605.1697,544.31456 605.42475,544.05951 605.42475,543.08183 605.42475,542.57173 605.21221,542.27418 604.31954,542.27418 603.85196,542.27418 603.51189,542.31668 601.85408,542.31668 600.45132,542.31668 600.3663,542.27418 600.3663,542.01913 600.3663,541.38151 601.13145,539.38364 601.13145,538.83103 601.13145,538.44846 600.91891,538.32094 600.70637,538.32094 600.02624,538.32094 599.94122,538.87354 598.2409,540.65887 596.37055,542.61424 594.75525,542.57173 594.75525,543.42189 Z"/>
	<path d="M 606.86272,547.41764 C 606.86272,548.01275 607.20278,548.14028 607.37281,548.14028 607.58535,548.14028 607.71287,548.01275 607.8404,547.88523 608.09545,547.58767 608.43551,545.03719 610.17834,545.03719 610.94348,545.03719 611.62361,545.80234 611.62361,547.92774 611.62361,551.11583 609.79577,557.36451 609.79577,559.06482 609.79577,560.08502 610.64592,560.17003 611.071,560.17003 L 611.28354,560.17003 C 612.81383,560.17003 612.72882,560.17003 613.66399,552.94368 L 613.87653,551.54091 C 614.08907,549.75558 615.15177,544.18704 617.06463,544.18704 618.59491,544.18704 618.42488,545.97237 619.36006,545.97237 620.1252,545.97237 620.21022,544.65462 620.29523,544.35707 620.42276,543.88948 620.76282,543.33688 620.76282,542.78427 620.76282,542.18916 620.29523,541.46653 619.19003,541.46653 616.04444,541.46653 613.91904,545.84485 613.62148,545.84485 613.53647,545.84485 613.49396,545.80234 612.43126,543.03932 612.17621,542.35919 611.75113,541.55154 610.85846,541.55154 610.47589,541.55154 606.86272,542.57173 606.86272,547.41764 Z"/>
	<path d="M 620.45398,555.15409 C 620.45398,557.91711 620.96407,560.63762 625.00233,560.63762 629.04059,560.63762 632.56875,555.53666 632.78129,555.53666 633.07884,555.53666 632.69627,560.29756 635.41678,560.29756 636.5645,560.29756 638.47735,558.34219 639.54005,556.8119 640.09266,556.04676 640.3052,555.40914 640.3052,554.98406 640.3052,554.81403 640.26269,554.51647 639.92263,554.51647 639.11497,554.51647 638.22231,557.27949 636.81954,557.27949 636.01189,557.27949 635.37427,555.87673 635.37427,554.77152 635.37427,553.15622 635.79935,551.20085 636.13942,549.3305 636.47948,547.41764 636.73453,545.46227 637.1171,543.88948 637.41466,542.65675 637.96726,541.63656 637.96726,540.95643 637.96726,540.48884 637.75472,540.31881 637.49967,540.31881 636.64951,540.31881 636.13942,542.4017 635.28926,542.4017 633.88649,542.4017 632.99383,541.93411 631.67608,541.93411 630.57087,541.93411 629.72071,542.14665 628.573,542.69926 626.32008,543.76196 624.36471,545.80234 622.83442,548.22529 621.51667,550.35069 620.45398,552.77365 620.45398,555.15409 Z M 623.42953,554.89904 C 623.42953,554.1339 623.51455,553.36876 623.64207,552.60361 624.02465,550.3932 625.04484,548.48034 626.27757,546.43996 627.55281,544.27205 629.80573,542.99681 631.54856,542.99681 632.44122,542.99681 634.35408,543.29437 634.35408,544.48459 634.35408,544.61212 633.20637,552.43358 632.18618,554.47396 631.8036,555.23911 629.80573,558.29968 626.74516,558.29968 624.95982,558.29968 623.42953,557.02444 623.42953,554.89904 Z"/>
	<path d="M 641.69999,546.35494 C 641.69999,546.82253 641.78501,547.16259 642.08256,547.16259 643.01774,547.16259 643.48533,544.78215 644.80307,544.78215 645.22815,544.78215 645.78076,545.63231 645.78076,547.12009 645.78076,550.3932 643.9104,556.98193 643.9104,558.76727 643.9104,560 644.25047,560.08502 645.39818,560.08502 646.50339,560.08502 646.84345,559.91498 646.97098,558.97981 647.05599,558.3847 646.75844,558.89479 647.82114,553.15622 648.84133,547.67269 648.33123,548.05526 650.15908,545.46227 651.13676,544.05951 651.94441,543.59192 652.92209,543.59192 655.68511,543.59192 655.89765,546.39745 655.89765,547.07758 655.89765,548.65037 655.00498,554.34644 655.00498,557.57705 655.00498,559.06482 655.72762,560.25505 656.57778,560.25505 658.44813,560.25505 662.18883,557.27949 662.18883,555.62168 662.18883,555.36663 662.10382,555.11158 661.80626,555.11158 661.16864,555.11158 660.99861,555.62168 660.48851,556.2593 660.48851,556.2593 659.51083,557.19447 658.78819,557.19447 658.32061,557.19447 657.98054,556.85441 657.98054,555.66419 657.98054,554.21892 658.70318,549.71307 658.70318,546.73751 658.70318,544.05951 658.10807,541.42402 655.13251,541.42402 653.34717,541.42402 651.09425,542.9543 649.94654,543.84697 648.37374,545.03719 648.07619,545.97237 647.82114,545.97237 647.43857,545.97237 648.33123,541.50903 645.86577,541.50903 644.25047,541.50903 641.69999,544.69713 641.69999,546.35494 Z"/>
	<path d="M 663.65071,557.70457 C 663.65071,559.95749 666.71128,560.5101 668.36909,560.5101 673.81011,560.5101 675.00034,556.47184 675.00034,554.94155 675.00034,552.09352 673.38503,550.90329 672.06729,549.41552 671.0471,548.31031 668.70916,546.56748 668.70916,544.95218 668.70916,543.67694 669.34678,542.69926 670.96208,542.69926 672.61989,542.69926 672.78992,545.0797 674.32021,545.0797 674.53275,545.0797 675.93551,544.95218 675.93551,543.63443 675.93551,541.97662 674.2777,541.42402 671.98227,541.42402 668.66665,541.42402 666.20119,543.37938 666.20119,546.22742 666.20119,548.7779 667.81649,549.8831 669.51681,551.62593 671.0471,553.15622 672.44986,554.38895 672.44986,556.38682 672.44986,556.89692 672.1523,559.10733 669.04922,559.10733 666.45623,559.10733 667.17887,556.17428 665.01096,556.17428 664.50087,556.17428 663.65071,556.38682 663.65071,557.70457 Z"/>
	<path d="M 678.75033,556.34431 C 678.75033,560.34006 679.98306,560.34006 680.83322,560.34006 681.64087,560.34006 683.42621,559.4899 684.53142,558.21467 685.55161,557.02444 686.65681,555.57917 686.65681,555.15409 686.65681,554.72901 686.44427,554.47396 686.14672,554.47396 685.04151,554.47396 684.61643,557.49203 682.27849,557.49203 681.72589,557.49203 681.59837,557.27949 681.59837,555.83422 681.59837,554.38895 682.10846,551.71095 682.8311,546.69501 684.19135,537.55579 683.46872,539.12859 685.04151,530.88204 685.16903,530.07439 685.46659,529.52179 685.46659,528.92667 685.46659,528.5016 685.25405,528.24655 684.57392,528.24655 683.46872,528.24655 682.53354,528.67163 679.43046,528.88417 678.87786,528.92667 678.79284,529.26674 678.79284,529.47928 678.79284,529.94687 679.17541,530.07439 680.02557,530.07439 680.53567,530.07439 680.62068,530.03188 681.2583,530.03188 681.89592,530.03188 682.321,530.37195 682.321,530.88204 682.321,531.39214 681.68338,535.21785 680.96075,539.80871 680.53567,542.52922 680.32313,545.54729 679.94055,548.22529 679.85554,548.90542 678.75033,553.92136 678.75033,556.34431 Z"/>
	<path d="M 689.28036,555.15409 C 689.28036,557.91711 689.79045,560.63762 693.82871,560.63762 697.86697,560.63762 701.39513,555.53666 701.60767,555.53666 701.90522,555.53666 701.52265,560.29756 704.24316,560.29756 705.39088,560.29756 707.30374,558.34219 708.36644,556.8119 708.91904,556.04676 709.13158,555.40914 709.13158,554.98406 709.13158,554.81403 709.08907,554.51647 708.74901,554.51647 707.94136,554.51647 707.04869,557.27949 705.64593,557.27949 704.83827,557.27949 704.20065,555.87673 704.20065,554.77152 704.20065,553.15622 704.62573,551.20085 704.9658,549.3305 705.30586,547.41764 705.56091,545.46227 705.94348,543.88948 706.24104,542.65675 706.79364,541.63656 706.79364,540.95643 706.79364,540.48884 706.5811,540.31881 706.32605,540.31881 705.47589,540.31881 704.9658,542.4017 704.11564,542.4017 702.71288,542.4017 701.82021,541.93411 700.50246,541.93411 699.39725,541.93411 698.54709,542.14665 697.39938,542.69926 695.14646,543.76196 693.19109,545.80234 691.6608,548.22529 690.34306,550.35069 689.28036,552.77365 689.28036,555.15409 Z M 692.25592,554.89904 C 692.25592,554.1339 692.34093,553.36876 692.46845,552.60361 692.85103,550.3932 693.87122,548.48034 695.10395,546.43996 696.37919,544.27205 698.63211,542.99681 700.37494,542.99681 701.2676,542.99681 703.18046,543.29437 703.18046,544.48459 703.18046,544.61212 702.03275,552.43358 701.01256,554.47396 700.62999,555.23911 698.63211,558.29968 695.57154,558.29968 693.7862,558.29968 692.25592,557.02444 692.25592,554.89904 Z"/>
	<path d="M 711.15402,543.42189 C 711.15402,544.61212 713.66199,543.67694 713.66199,544.56961 713.66199,545.71732 711.87666,552.60361 711.87666,556.51435 711.87666,559.82997 713.44945,560.5101 714.59717,560.5101 717.23266,560.5101 720.84584,557.61955 720.84584,556.51435 720.84584,555.91923 720.50578,555.91923 720.37825,555.91923 719.69813,555.91923 718.72044,557.78959 716.3825,557.78959 716.21247,557.78959 714.63968,557.70457 714.63968,555.45165 714.63968,554.77152 715.61736,549.24548 715.99993,546.60999 716.25498,544.86716 716.12746,544.10202 717.36019,544.10202 718.29536,544.10202 720.12321,544.31456 720.80333,544.31456 721.56848,544.31456 721.82352,544.05951 721.82352,543.08183 721.82352,542.57173 721.61098,542.27418 720.71832,542.27418 720.25073,542.27418 719.91067,542.31668 718.25285,542.31668 716.85009,542.31668 716.76508,542.27418 716.76508,542.01913 716.76508,541.38151 717.53022,539.38364 717.53022,538.83103 717.53022,538.44846 717.31768,538.32094 717.10514,538.32094 716.42501,538.32094 716.34,538.87354 714.63968,540.65887 712.76933,542.61424 711.15402,542.57173 711.15402,543.42189 Z"/>
	<path d="M 723.40296,553.75133 C 723.40296,557.53454 724.72071,560.5101 730.11922,560.5101 733.81741,560.5101 737.51561,557.53454 737.51561,556.55685 737.51561,556.30181 737.34558,556.13177 737.00551,556.13177 736.53792,556.13177 734.83761,557.95962 732.41465,557.95962 728.20636,557.95962 726.2935,555.83422 726.2935,552.64612 726.2935,551.54091 726.42103,550.90329 727.01614,550.90329 731.01189,550.86079 733.30732,549.92561 733.68989,549.75558 734.49754,549.41552 737.81316,547.67269 737.81316,544.61212 737.81316,542.74176 736.11284,541.46653 734.11497,541.46653 731.73452,541.46653 729.77916,542.23167 728.20636,543.71945 725.27331,546.43996 723.40296,550.09564 723.40296,553.75133 Z M 726.88862,549.3305 C 726.88862,548.7779 727.8663,546.05739 729.14154,544.73964 730.24674,543.59192 731.56449,542.74176 732.62719,542.74176 733.34983,542.74176 734.88011,543.12434 734.88011,544.73964 734.88011,547.41764 731.39446,550.18066 727.27119,550.18066 726.97363,550.18066 726.88862,549.62806 726.88862,549.3305 Z"/>
	<path d="M 739.86816,554.6865 C 739.86816,557.8746 741.35593,560.34006 744.96911,560.34006 749.1774,560.34006 751.34531,555.57917 751.72788,555.57917 752.32299,555.57917 751.34531,560.34006 754.32087,560.34006 757.08388,560.34006 759.76189,556.04676 759.76189,555.15409 759.76189,554.98406 759.63436,554.77152 759.2943,554.77152 758.61417,554.77152 757.63649,557.40701 755.76614,557.40701 754.78845,557.40701 754.66093,556.51435 754.66093,555.57917 754.66093,554.30393 755.08601,551.62593 755.5536,548.39532 757.93404,531.00957 758.35912,529.64931 758.35912,528.5441 758.35912,528.16153 758.06157,527.82147 757.67899,527.82147 756.53128,527.82147 756.78633,527.90648 754.40588,528.5016 753.21566,528.79915 751.72788,528.62912 751.72788,529.35175 751.72788,529.64931 751.98293,529.81934 752.40801,529.81934 752.45051,529.81934 753.4282,529.77683 753.89579,529.77683 754.53341,529.77683 755.12852,530.20191 755.12852,530.83953 755.12852,531.13709 753.72575,542.31668 753.59823,542.31668 752.40801,542.31668 751.55785,541.76408 750.45264,541.76408 745.39419,541.76408 739.86816,548.09777 739.86816,554.6865 Z M 742.84371,553.49628 C 742.84371,549.03294 746.32937,542.65675 750.2401,542.65675 751.38782,542.65675 753.08813,543.20935 753.08813,544.35707 753.08813,546.05739 752.45051,553.53879 750.7502,555.66419 749.64499,557.06695 747.98718,557.8746 746.45689,557.8746 743.8639,557.8746 742.84371,555.96174 742.84371,553.49628 Z"/>
	<path d="M 771.07033,556.98193 C 771.07033,559.4474 773.74833,560.5526 776.2563,560.5526 782.84504,560.5526 787.86098,552.94368 787.86098,547.16259 787.86098,544.39958 786.3732,541.76408 783.1851,541.76408 778.29668,541.76408 776.29881,545.71732 775.7037,545.71732 775.61868,545.71732 775.49116,545.37726 775.49116,545.0797 775.49116,542.01913 778.21167,529.35175 778.21167,528.58661 778.21167,528.11902 777.8716,527.82147 777.40402,527.82147 777.14897,527.82147 776.38383,528.07652 774.72601,528.28906 772.77065,528.5441 771.58043,528.5016 771.58043,529.35175 771.58043,529.94687 771.92049,529.94687 772.38808,529.94687 773.0257,529.94687 773.49328,529.86185 774.1309,529.86185 774.98106,529.86185 775.1936,530.15941 775.1936,530.37195 775.1936,531.39214 774.93855,532.87992 774.55598,534.70776 773.91836,537.85335 773.40827,541.97662 772.64312,546.39745 772.04801,549.8406 771.07033,554.26142 771.07033,556.98193 Z M 773.87586,556.47184 C 773.87586,556.04676 774.34344,551.49841 775.57617,548.14028 776.93643,544.44208 779.69945,544.017 780.71964,544.017 783.05758,544.017 784.88542,545.97237 784.88542,548.35282 784.88542,553.24123 780.97469,559.36238 777.14897,559.36238 774.51348,559.36238 773.87586,557.91711 773.87586,556.47184 Z"/>
	<path d="M 789.50617,565.3135 C 789.50617,567.26886 791.20649,567.82147 793.03433,567.82147 797.03008,567.82147 799.75059,562.97556 801.74847,557.91711 804.25644,551.58342 805.27663,545.71732 805.27663,543.80446 805.27663,542.48672 804.55399,541.55154 803.61882,541.55154 802.59863,541.55154 802.17355,542.35919 802.17355,543.12434 802.17355,544.27205 803.23625,545.12221 803.23625,546.35494 803.23625,549.20298 802.30107,553.75133 801.70596,553.75133 801.23837,553.75133 797.20011,541.67907 793.07684,541.67907 790.48385,541.67907 789.6337,545.37726 789.6337,547.16259 789.6337,547.88523 789.80373,548.09777 790.05877,548.09777 791.33401,548.09777 790.44135,544.90967 792.90681,544.90967 795.15973,544.90967 799.83561,555.87673 799.83561,558.25717 799.83561,559.87248 797.03008,565.3135 794.56462,565.3135 792.60925,565.3135 792.56675,563.91073 790.86643,563.91073 790.14379,563.91073 789.50617,564.59086 789.50617,565.3135 Z"/>
	<path d="M 512.81323,581.40351 504.01791,581.40351 504.01791,606.8538 C 504.01791,610.73684 502.09978,612.2807 499.57346,612.2807 497.32785,612.2807 494.56761,609.66082 494.56761,609.66082 L 491.7606,617.00585 C 491.7606,617.00585 495.26937,620.70175 500.78984,620.70175 508.50913,620.70175 512.81323,616.67836 512.81323,609.09942 L 512.81323,581.40351 Z"/>
	<path d="M 521.21674,600.67836 C 521.21674,611.95322 529.26352,620.70175 540.67873,620.70175 551.76644,620.70175 560.09393,611.95322 560.09393,600.67836 560.09393,589.40351 551.39218,580.70175 540.67873,580.70175 530.05884,580.70175 521.21674,589.40351 521.21674,600.67836 Z M 530.71381,600.67836 C 530.71381,594.92398 533.8951,589.16959 540.67873,589.16959 547.50913,589.16959 550.59685,594.92398 550.59685,600.67836 550.59685,606.43275 547.69627,612.18713 540.67873,612.18713 533.47405,612.18713 530.71381,606.43275 530.71381,600.67836 Z"/>
	<path d="M 577.7701,604.51462 590.21454,604.51462 590.21454,620 599.00987,620 599.00987,581.40351 590.21454,581.40351 590.21454,596.79532 577.7701,596.79532 577.7701,581.40351 568.97478,581.40351 568.97478,620 577.7701,620 577.7701,604.51462 Z"/>
	<path d="M 618.40606,596.04678 618.49963,596.04678 633.84466,620 642.63998,620 642.63998,581.40351 633.84466,581.40351 633.84466,605.35672 633.75109,605.35672 618.40606,581.40351 609.61074,581.40351 609.61074,620 618.40606,620 618.40606,596.04678 Z"/>
	<path d="M 669.32347,600.67836 C 669.32347,611.95322 677.37026,620.70175 688.78546,620.70175 699.87318,620.70175 708.20067,611.95322 708.20067,600.67836 708.20067,589.40351 699.49891,580.70175 688.78546,580.70175 678.16558,580.70175 669.32347,589.40351 669.32347,600.67836 Z M 678.82055,600.67836 C 678.82055,594.92398 682.00183,589.16959 688.78546,589.16959 695.61587,589.16959 698.70359,594.92398 698.70359,600.67836 698.70359,606.43275 695.803,612.18713 688.78546,612.18713 681.58078,612.18713 678.82055,606.43275 678.82055,600.67836 Z"/>
	<path d="M 717.0815,581.40351 717.0815,620 725.87683,620 725.87683,604.74854 737.6663,620 748.84759,620 735.56104,604.04678 C 740.28618,602.54971 743.46747,598.66667 743.46747,592.8655 743.46747,585.28655 738.04057,581.40351 730.88267,581.40351 L 717.0815,581.40351 Z M 725.87683,598.52632 725.87683,588.42105 726.90607,588.42105 C 730.2277,588.42105 734.20431,588.65497 734.20431,593.47368 734.20431,598.2924 730.2277,598.52632 726.90607,598.52632 L 725.87683,598.52632 Z"/>
	<path d="M 787.5223,620 796.31762,620 792.85563,581.40351 783.49891,581.40351 774.93751,603.67251 766.3761,581.40351 757.01938,581.40351 753.55739,620 762.35271,620 764.17727,597.12281 764.41119,597.12281 772.31762,619.76608 777.55739,619.76608 785.46382,597.12281 785.69774,597.12281 787.5223,620 Z"/>
	<path d="M 818.14949,580.70175 C 811.92727,580.70175 805.5647,585.28655 805.5647,592.49123 805.5647,596.51462 808.27815,600.11696 812.90973,602.40936 817.49452,604.70175 821.61148,605.96491 821.61148,608.77193 821.61148,612.37427 817.96236,612.5614 816.04423,612.5614 811.74013,612.5614 806.59394,608.21053 806.59394,608.21053 L 802.19627,615.60234 C 802.19627,615.60234 807.66996,620.70175 816.6992,620.70175 824.23136,620.70175 831.24891,617.47368 831.24891,608.25731 831.24891,603.20468 826.52376,599.55556 822.21967,597.73099 817.82201,595.85965 814.17288,594.31579 814.17288,592.16374 814.17288,590.05848 815.76353,588.70175 818.75768,588.70175 822.73429,588.70175 826.57054,591.36842 826.57054,591.36842 L 830.1261,584.35088 C 830.1261,584.35088 825.16704,580.70175 818.14949,580.70175 Z"/>
	<path d="M 840.36001,581.40351 840.36001,620 855.00328,620 C 863.00328,620 867.63486,615.60234 867.63486,609.23977 867.63486,603.01754 864.21966,600.35088 859.40094,599.50877 862.6758,597.82456 864.21966,594.78363 864.21966,591.22807 864.21966,583.88304 858.97989,581.40351 852.33662,581.40351 L 840.36001,581.40351 Z M 849.15533,596.51462 849.15533,588.18713 849.85708,588.18713 C 853.69334,588.18713 855.70504,589.35672 855.70504,592.11696 855.70504,595.34503 853.64656,596.51462 849.85708,596.51462 L 849.15533,596.51462 Z M 849.15533,613.21637 849.15533,604.09357 851.91556,604.09357 C 856.07931,604.09357 858.3717,605.35672 858.3717,608.91228 858.3717,611.95322 856.07931,613.21637 851.91556,613.21637 L 849.15533,613.21637 Z"/>
	<path d="M 870.93751,581.40351 885.15973,602.69006 885.15973,620 893.95505,620 893.95505,602.69006 908.17727,581.40351 897.60417,581.40351 889.55739,593.75439 881.51061,581.40351 870.93751,581.40351 Z"/>
</svg>
